<?xml version="1.0" encoding="UTF-8" standalone="no"?>
<!-- Created with Inkscape (http://www.inkscape.org/) -->

<svg
   width="50mm"
   height="50mm"
   viewBox="0 0 50 50"
   version="1.1"
   id="svg5"
   xml:space="preserve"
   inkscape:export-filename="bathrooms.svg"
   inkscape:export-xdpi="96"
   inkscape:export-ydpi="96"
   xmlns:inkscape="http://www.inkscape.org/namespaces/inkscape"
   xmlns:sodipodi="http://sodipodi.sourceforge.net/DTD/sodipodi-0.dtd"
   xmlns="http://www.w3.org/2000/svg"
   xmlns:svg="http://www.w3.org/2000/svg"><sodipodi:namedview
     id="namedview7"
     pagecolor="#ffffff"
     bordercolor="#000000"
     borderopacity="0.25"
     inkscape:showpageshadow="2"
     inkscape:pageopacity="0.0"
     inkscape:pagecheckerboard="0"
     inkscape:deskcolor="#d1d1d1"
     inkscape:document-units="mm"
     showgrid="false" /><defs
     id="defs2" /><g
     inkscape:label="Layer 1"
     inkscape:groupmode="layer"
     id="layer1"><path
       style="fill:#4d4d4d;stroke-width:0.284496"
       d="m 11.114079,44.267058 -0.497862,-0.289973 v -0.711236 c 0,-0.391194 0.193566,-1.085561 0.430159,-1.543071 l 0.430158,-0.831845 -1.191651,-0.607931 C 9.6294774,39.948651 8.4276208,39.045556 7.614076,38.276146 L 6.1349208,36.877239 5.336743,35.106972 4.5385651,33.336734 4.412391,31.060767 4.2862168,28.784809 3.407757,28.215817 C 2.9245995,27.902862 2.2364512,27.211804 1.8785472,26.680135 l -0.650724,-0.966691 v -1.338335 -1.338336 l 0.650724,-0.966691 c 0.357904,-0.531679 1.0571006,-1.222726 1.5537833,-1.535673 L 4.3353638,19.965417 4.345738,13.763485 4.3561121,7.5615593 4.7726424,6.7561009 C 5.742303,4.8809801 7.8093673,3.9064159 9.9608501,4.3100485 l 1.0528089,0.1975087 1.057321,1.05732 1.05732,1.0573198 0.201594,1.074569 0.201593,1.0745784 -0.314138,0.6894692 -0.314152,0.6894694 h -0.80269 c -0.925766,0 -1.48547,-0.4550947 -1.48547,-1.2078074 0,-0.2887749 -0.322192,-0.8472214 -0.7159898,-1.2410027 L 9.1830701,6.9854929 8.5476998,7.1741489 C 8.1982374,7.2778812 7.7522837,7.5663613 7.5566948,7.8151704 L 7.2010725,8.2675645 v 2.6141595 2.614132 l 1.7108075,0.123711 1.710794,0.123711 0.760962,0.568146 c 0.418539,0.31248 1.016628,0.910569 1.329107,1.329112 l 0.568146,0.760957 0.123711,1.710807 0.12371,1.710808 15.968719,0.0048 15.968725,0.0048 1.108369,0.63544 1.108369,0.63543 0.544842,0.995731 0.544843,0.99575 -0.102418,1.577646 -0.102431,1.577654 -0.553708,0.734076 c -0.304539,0.403737 -0.953824,0.996349 -1.442856,1.316921 l -0.889147,0.582856 -0.12594,2.399392 -0.125941,2.399393 -0.783812,1.602064 -0.783809,1.602054 -1.296601,1.296592 c -0.713127,0.713127 -1.92232,1.613684 -2.687087,2.001218 l -1.390487,0.704617 0.447644,0.86563 0.447643,0.86565 -0.08819,0.758256 -0.0882,0.758237 -0.773753,0.270499 -0.773749,0.27049 -0.538201,-0.487073 c -0.296011,-0.267884 -0.767412,-0.99536 -1.047561,-1.616613 L 35.564206,41.444977 H 24.973321 14.38243 l -0.358345,0.865126 c -0.821013,1.982096 -1.771391,2.620968 -2.911264,1.95705 z m 27.156347,-6.606279 1.622791,-0.7969 0.737898,-0.876937 c 0.405847,-0.482328 1.00701,-1.403956 1.335922,-2.048068 l 0.598023,-1.171122 0.137846,-1.920355 0.137846,-1.920345 H 25.021508 7.2022659 v 1.235013 c 0,3.816166 2.3993961,7.080077 5.9153371,8.046644 l 1.339313,0.368174 11.095356,-0.05962 11.095359,-0.05962 z m 7.054342,-12.147696 c 0.312947,-0.312947 0.568992,-0.825028 0.568992,-1.137974 0,-0.312947 -0.256045,-0.825038 -0.568992,-1.137994 L 44.755775,22.668124 H 24.983281 5.2107892 l -0.5689895,0.568991 c -0.3129456,0.312956 -0.5690026,0.825047 -0.5690026,1.137994 0,0.312946 0.256057,0.825027 0.5690026,1.137974 l 0.5689895,0.569001 H 24.983281 44.755775 Z M 10.616217,18.865792 V 17.908411 L 10.02657,17.158817 9.4369361,16.409214 H 8.319601 7.2022659 v 1.706975 1.706985 h 1.7069687 1.7069824 z"
       id="path475" /></g></svg>
