<?xml version="1.0" encoding="UTF-8" standalone="no"?>
<!-- Created with Inkscape (http://www.inkscape.org/) -->

<svg
   width="50mm"
   height="50mm"
   viewBox="0 0 50 50"
   version="1.1"
   id="svg5"
   xml:space="preserve"
   inkscape:export-filename="bedrooms.svg"
   inkscape:export-xdpi="96"
   inkscape:export-ydpi="96"
   xmlns:inkscape="http://www.inkscape.org/namespaces/inkscape"
   xmlns:sodipodi="http://sodipodi.sourceforge.net/DTD/sodipodi-0.dtd"
   xmlns="http://www.w3.org/2000/svg"
   xmlns:svg="http://www.w3.org/2000/svg"><sodipodi:namedview
     id="namedview7"
     pagecolor="#ffffff"
     bordercolor="#000000"
     borderopacity="0.25"
     inkscape:showpageshadow="2"
     inkscape:pageopacity="0.0"
     inkscape:pagecheckerboard="0"
     inkscape:deskcolor="#d1d1d1"
     inkscape:document-units="mm"
     showgrid="false" /><defs
     id="defs2" /><g
     inkscape:label="Layer 1"
     inkscape:groupmode="layer"
     id="layer1"><path
       style="fill:#4d4d4d;stroke-width:0.306846"
       d="M 2.1460936,45.054855 1.8284515,44.46133 V 36.056379 27.651428 L 2.5188552,27.016704 C 2.8985813,26.667601 4.1067838,25.806695 5.2037536,25.103577 L 7.1982623,23.825175 7.3516774,14.752225 7.5051064,5.6792741 8.1730059,5.2360672 8.8409332,4.7928697 9.4771118,5.4290492 10.113304,6.0652379 v 1.8410815 c 0,1.0125874 0.104478,1.841063 0.232214,1.841063 0.127695,0 1.750156,-0.3391666 3.605432,-0.7537242 1.855276,-0.4145575 5.084617,-0.8996863 7.1763,-1.0780609 l 3.803071,-0.3243275 3.86808,0.3157355 c 3.2963,0.269068 5.52627,0.6354936 10.527818,1.7298858 l 0.829665,0.1815445 0.09087,-2.2601528 0.09087,-2.2601714 h 1.073953 1.073965 l 0.09831,9.2053996 0.09831,9.205371 2.744701,1.760296 2.744688,1.760268 -0.08131,8.946035 -0.08131,8.946025 -0.53697,0.338573 -0.536982,0.338574 -0.536982,-0.33761 -0.536984,-0.337628 -0.08914,-2.499135 -0.08914,-2.499144 H 25.136439 4.5901618 v 1.974531 c 0,1.085995 -0.1346879,2.328713 -0.2992504,2.761604 l -0.2992355,0.7871 H 3.2277609 2.4638459 Z M 45.707431,33.527955 V 29.38554 H 25.148748 4.5900644 v 4.142415 4.142424 H 25.148748 45.707431 Z m -3.375303,-6.84494 c 0,-0.478029 -4.810987,-2.804712 -7.989346,-3.86381 l -3.210539,-1.069793 -2.7556,-0.362579 -2.755609,-0.362579 -2.36761,0.197459 c -1.302186,0.108526 -3.705848,0.536912 -5.341456,0.951813 l -2.973854,0.754382 -3.486367,1.676443 C 9.5342463,25.526393 7.9653666,26.427025 7.9653666,26.60577 v 0.325004 H 25.148748 42.332128 Z M 15.329686,20.238451 c 7.756136,-2.50515 15.554042,-1.981047 23.703849,1.593211 l 1.150663,0.504648 V 17.471221 12.60615 l -1.170187,-0.350604 c -0.643606,-0.192834 -2.542215,-0.644883 -4.219137,-1.004552 l -3.048938,-0.653939 -5.216382,-0.145499 -5.216381,-0.145498 -3.203188,0.488363 c -1.76175,0.268615 -4.281723,0.779399 -5.599927,1.135101 l -2.396754,0.646709 v 4.859037 4.859046 l 1.610937,-0.705833 c 0.886015,-0.388216 2.508462,-0.995718 3.605445,-1.35003 z"
       id="path477" /></g></svg>
