<?xml version="1.0" encoding="UTF-8" standalone="no"?>
<!-- Created with Inkscape (http://www.inkscape.org/) -->

<svg
   width="50mm"
   height="50mm"
   viewBox="0 0 50 50"
   version="1.1"
   id="svg5"
   xml:space="preserve"
   inkscape:export-filename="plot_area.svg"
   inkscape:export-xdpi="96"
   inkscape:export-ydpi="96"
   xmlns:inkscape="http://www.inkscape.org/namespaces/inkscape"
   xmlns:sodipodi="http://sodipodi.sourceforge.net/DTD/sodipodi-0.dtd"
   xmlns="http://www.w3.org/2000/svg"
   xmlns:svg="http://www.w3.org/2000/svg"><sodipodi:namedview
     id="namedview7"
     pagecolor="#ffffff"
     bordercolor="#000000"
     borderopacity="0.25"
     inkscape:showpageshadow="2"
     inkscape:pageopacity="0.0"
     inkscape:pagecheckerboard="0"
     inkscape:deskcolor="#d1d1d1"
     inkscape:document-units="mm"
     showgrid="false" /><defs
     id="defs2" /><g
     inkscape:label="Layer 1"
     inkscape:groupmode="layer"
     id="layer1"><path
       style="fill:#4d4d4d;stroke-width:0.28553"
       d="M 4.632966,49.695498 C 4.1395682,49.577843 3.2711315,49.194343 2.7031027,48.843284 L 1.6703307,48.204991 0.88764947,46.873569 0.10496817,45.542149 0.02003088,24.412875 C -0.02675054,12.791776 0.01125932,2.865774 0.10438345,2.3550934 L 0.27373197,1.4265842 1.0429928,0.71329141 1.8122395,0 3.5283412,2.2505531e-4 5.2444418,4.5031049e-4 6.9602217,0.81216234 8.6760006,1.6238735 9.5996398,2.6758252 c 0.5079882,0.578573 1.2135092,1.5944559 1.5678182,2.2575176 l 0.644195,1.2055669 0.08084,15.5435893 0.08084,15.543588 0.311008,0.37475 0.311008,0.374748 15.312308,2.27e-4 15.312327,2.24e-4 1.715778,0.811709 1.71578,0.811714 0.923625,1.05195 c 0.507986,0.578575 1.200643,1.594459 1.539223,2.257518 l 0.615598,1.205568 0.135082,1.880657 L 50,47.87581 l -0.343535,0.641909 -0.343551,0.641909 -0.967204,0.404124 -0.967205,0.404123 -20.924291,-0.02922 C 14.945872,49.922569 5.1262458,49.813159 4.632849,49.695501 Z m 4.6856345,-9.078754 0.076601,-6.63859 H 7.9435176 c -0.7984267,0 -1.7002099,-0.133006 -2.0039816,-0.295575 L 5.387253,33.387 l 0.0044,-0.632396 c 0.0029,-0.34782 0.1128594,-0.803561 0.2454852,-1.012756 L 5.8782633,31.361489 7.6431627,31.201451 9.408077,31.041414 9.3250403,29.012032 9.2420037,26.982651 7.6715824,26.836883 C 5.4597604,26.631579 4.6447414,25.697974 5.7299807,24.612748 L 6.0726074,24.270111 H 7.7286827 9.3847709 V 21.985866 19.701618 H 7.7286827 6.0726074 L 5.7299777,19.358983 C 5.5415178,19.170533 5.38733,18.725342 5.38733,18.369671 v -0.646673 l 0.5522829,-0.295577 c 0.3037727,-0.16257 1.2031875,-0.295577 1.998719,-0.295577 h 1.446435 v -2.141482 -2.14148 H 7.7286787 6.0726034 L 5.7299737,12.506245 C 5.5415178,12.317795 5.38733,11.872605 5.38733,11.516935 V 10.87026 l 0.5522829,-0.295578 c 0.3037727,-0.162566 1.2031875,-0.295576 1.998719,-0.295576 h 1.446435 V 8.7758413 7.2725768 L 8.7908638,6.1346824 C 8.4642128,5.5088408 7.740666,4.5911787 7.1829885,4.0954335 L 6.1690024,3.19408 4.9558004,2.8544023 C 4.2885384,2.6675795 3.5023339,2.5609854 3.2086937,2.6175246 l -0.5339098,0.1028029 -0.07777,20.5543195 -0.07777,20.55432 0.4494521,1.190344 0.449468,1.190345 0.6395748,0.419066 c 0.9169145,0.600791 1.5377613,0.720779 3.4710734,0.670853 l 1.7131925,-0.04424 z m 37.9886625,5.707234 0.08976,-0.931357 -0.634078,-1.26962 -0.634077,-1.269623 -1.026062,-0.819271 C 43.896583,41.070986 42.511154,40.545361 41.17882,40.545361 h -0.956738 v 1.550024 1.550022 l -0.44869,0.448693 c -1.134522,1.134519 -2.050617,0.357884 -2.175377,-1.844208 l -0.08845,-1.561766 -2.070105,-0.0839 -2.070089,-0.08389 v 1.562532 1.562532 l -0.448695,0.4487 c -1.13452,1.13452 -2.050617,0.357885 -2.175377,-1.844208 l -0.08845,-1.561765 -2.212874,-0.08339 -2.212861,-0.0834 v 1.668092 1.668086 l -0.342629,0.342637 c -1.090912,1.090913 -2.160962,0.176195 -2.281424,-1.950263 l -0.08845,-1.561765 -2.033761,-0.08315 -2.03376,-0.08315 -0.13245,1.59669 -0.132449,1.596692 -0.47049,0.470496 -0.470502,0.470497 -0.789699,-0.276591 -0.789699,-0.276587 -0.08524,-1.790584 -0.08538,-1.790582 -2.198927,0.08314 -2.198944,0.08314 -0.08377,2.712543 c -0.04605,1.491898 -0.01169,3.002628 0.07734,3.357178 l 0.161074,0.644638 17.482745,-0.07358 17.482763,-0.07358 z M 14.972961,35.242648 14.524269,34.793956 V 18.881737 2.9695193 l 0.342645,-0.3426357 0.342628,-0.3426377 h 15.326592 15.326579 l 0.366985,0.4421807 0.366971,0.4421797 -0.183909,15.8687577 -0.183908,15.868765 -0.325834,0.392606 -0.325831,0.392603 H 30.499424 15.421653 Z m 29.103728,-5.975751 v -3.99743 l -9.565267,-0.14277 -9.56528,-0.142772 -0.075,-10.207723 -0.075,-10.2077227 H 20.802319 16.808492 V 18.99055 33.412618 l 13.63409,-0.07415 13.634088,-0.07415 z m 0.07529,-15.49004 0.07529,-9.2083667 h -8.712648 -8.712633 v 9.2839347 9.283936 l 8.6373,-0.07557 8.637299,-0.07557 z m -16.303012,7.447592 c -0.104672,-0.104688 -0.190341,-1.502338 -0.190341,-3.105875 v -2.915523 l 0.428766,-0.355855 0.42878,-0.355855 0.97643,1.066 c 1.219604,1.331511 0.873378,1.509891 5.139369,-2.647817 L 38.231857,9.4010334 37.968244,8.9120937 C 37.823222,8.6431776 37.380889,8.1203787 36.985206,7.7503157 L 36.265797,7.0774752 36.418479,6.6795751 36.571177,6.2816749 h 2.801399 c 1.540773,0 3.004649,0.07799 3.253058,0.1733156 l 0.451645,0.1733125 v 3.1192506 3.1192494 l -0.448444,0.172084 -0.448428,0.172082 -1.051542,-1.026795 -1.051529,-1.026797 -3.85335,3.659242 -3.853351,3.659239 1.080064,1.195506 1.080065,1.195506 -0.16932,0.273966 -0.169319,0.273967 h -3.0764 c -1.692023,0 -3.162054,-0.08565 -3.266756,-0.190354 z"
       id="path473" /></g></svg>
