<?xml version="1.0" encoding="UTF-8" standalone="no"?>
<!-- Created with Inkscape (http://www.inkscape.org/) -->

<svg
   width="50mm"
   height="50mm"
   viewBox="0 0 50 50"
   version="1.1"
   id="svg5"
   xml:space="preserve"
   inkscape:export-filename="property_area.svg"
   inkscape:export-xdpi="96"
   inkscape:export-ydpi="96"
   xmlns:inkscape="http://www.inkscape.org/namespaces/inkscape"
   xmlns:sodipodi="http://sodipodi.sourceforge.net/DTD/sodipodi-0.dtd"
   xmlns="http://www.w3.org/2000/svg"
   xmlns:svg="http://www.w3.org/2000/svg"><sodipodi:namedview
     id="namedview7"
     pagecolor="#ffffff"
     bordercolor="#000000"
     borderopacity="0.25"
     inkscape:showpageshadow="2"
     inkscape:pageopacity="0.0"
     inkscape:pagecheckerboard="0"
     inkscape:deskcolor="#d1d1d1"
     inkscape:document-units="mm"
     showgrid="false" /><defs
     id="defs2" /><g
     inkscape:label="Layer 1"
     inkscape:groupmode="layer"
     id="layer1"><path
       style="fill:#4d4d4d;stroke-width:0.359036"
       d="M 3.266037,48.871236 C 1.604429,47.858266 0.83826,46.845636 0.383629,45.061676 L 0,43.556306 V 23.303874 3.0514294 l 0.396799,-1.138262 c 1.275688,-3.659452 8.326346,-1.736873 10.835425,2.954619 l 0.795455,1.487324 0.179514,15.6180296 0.179514,15.61802 15.618033,0.179528 15.618026,0.179514 0.947468,0.424736 c 1.512946,0.678255 3.521993,2.619433 4.31037,4.164783 l 0.727586,1.426195 0.195905,1.89814 0.195905,1.89814 -0.928321,0.92832 -0.928336,0.92832 -21.827702,-0.001 -21.827701,-9.9e-4 -1.221903,-0.74492 z M 9.514423,40.463444 V 34.000819 L 7.905816,33.886374 C 7.021083,33.823424 6.084276,33.595215 5.824041,33.379235 L 5.350873,32.986541 5.45792,32.237052 5.564967,31.487577 7.539666,31.308049 9.514351,31.128535 9.621978,29.064079 9.729605,26.999637 H 8.25195 c -0.812717,0 -1.790166,-0.167257 -2.172127,-0.371677 L 5.385352,26.256298 v -0.661472 c 0,-0.971256 0.711413,-1.403854 2.52029,-1.532543 L 9.514264,23.947839 V 21.97314 19.998441 L 7.905642,19.883996 C 6.096765,19.755336 5.385352,19.32271 5.385352,18.351454 V 17.689981 L 6.079823,17.318319 C 6.461784,17.1139 7.439611,16.946642 8.252791,16.946642 H 9.731302 L 9.622805,15.06171 9.514307,13.176776 7.905686,13.062331 C 6.096823,12.933643 5.385395,12.501039 5.385395,11.529787 V 10.86831 l 0.694471,-0.371666 c 0.381961,-0.204418 1.365561,-0.371668 2.185777,-0.371668 h 1.49129 L 9.503414,8.5990774 C 8.964335,5.3546494 6.163923,2.5852374 3.422242,2.5852374 H 2.872154 l 0.01305,20.9138016 0.01306,20.913787 0.47559,0.85807 c 0.261569,0.47194 0.861729,1.07594 1.333664,1.34223 l 0.858059,0.48416 1.974699,-0.0855 1.974699,-0.0856 z m 37.519184,5.547212 c 0,-2.793844 -3.160586,-5.726726 -6.17132,-5.726726 h -0.61101 l -0.109368,1.664059 -0.109368,1.664057 -0.766097,0.50624 -0.766098,0.50624 -0.580284,-0.58029 -0.580283,-0.58028 V 41.873941 40.28393 h -1.974694 -1.974693 v 1.595305 1.595291 l -0.77358,0.54184 -0.773578,0.54183 -0.662563,-0.35459 -0.66256,-0.35459 V 42.066481 40.28393 h -2.15421 -2.154212 v 1.782551 1.782535 l -0.668473,0.35775 -0.668474,0.35777 -0.571303,-0.43489 -0.571305,-0.43488 L 23.623522,42.0791 23.51691,40.463444 21.452459,40.355816 19.388007,40.248189 v 1.61322 1.613217 l -0.773581,0.54184 -0.773578,0.54183 -0.662562,-0.35459 -0.662565,-0.35459 v -1.782548 -1.782537 h -2.154213 -2.154199 v 3.410825 3.41084 H 29.620508 47.033709 Z M 18.547915,33.6481 18.015678,33.115853 18.198614,32.416305 c 0.100621,-0.384746 0.409365,-0.786433 0.686109,-0.892625 l 0.503174,-0.19309 v -8.987152 -8.987142 l -0.269277,0.01146 c -0.148101,0.0062 -0.582896,0.248629 -0.96621,0.538552 -0.889045,0.672441 -2.143494,0.675872 -2.698297,0.0074 l -0.431365,-0.519754 0.333369,-0.595683 c 0.183344,-0.327625 1.690591,-1.431272 3.349433,-2.452546 l 3.016075,-1.8568626 0.103682,-3.567213 0.103682,-3.567212 0.58027,-0.64119 0.580271,-0.641192 h 2.278083 2.278082 l 0.718071,0.71807 0.718069,0.718071 v 1.077105 c 0,1.28963 0.02137,1.292881 1.793833,0.272782 l 1.397542,-0.804321 1.058238,0.399441 c 3.412148,1.287941 16.574429,9.9996216 16.574429,10.9700656 v 0.673694 l -0.5915,0.226976 -0.591501,0.226979 -0.934399,-0.373599 C 47.27455,13.971838 46.571332,13.685776 46.225765,13.541623 l -0.628314,-0.262095 v 9.001655 9.00167 l 0.718072,0.384297 0.718071,0.384296 v 0.633622 c 0,0.348498 -0.193874,0.827512 -0.430842,1.06448 l -0.430844,0.430843 H 32.626027 19.080142 Z M 28.72281,27.69009 v -3.617972 l 1.049489,-1.049482 1.049485,-1.049496 h 1.481592 1.481588 l 1.020349,0.527649 1.020353,0.527634 0.397957,1.141604 0.397963,1.141588 v 2.998217 2.998217 h 3.231312 3.231313 l -0.01015,-9.963223 -0.01015,-9.963223 -5.197339,-3.1707846 c -2.858538,-1.74393 -5.330337,-3.117239 -5.492882,-3.051798 -0.16255,0.06545 -2.504318,1.486877 -5.203927,3.158746 L 22.26135,11.357529 v 9.975257 9.975263 h 3.231316 3.231316 z m 0.430844,-9.738148 -0.430844,-0.430843 v -2.908181 -2.908184 l 0.430844,-0.430843 0.430843,-0.430842 h 2.959633 2.959632 l 0.558913,0.797958 0.558911,0.797958 v 2.173953 2.173951 l -0.558911,0.797965 -0.558913,0.79795 H 32.54413 29.584497 Z m 4.595651,-3.361771 v -1.279372 l -1.163925,0.112501 -1.163925,0.112501 -0.123061,0.649284 c -0.06768,0.357106 -0.03368,0.882195 0.07554,1.166864 l 0.198615,0.517579 h 1.088375 1.088373 z m 0,13.463821 v -3.25407 l -1.166866,0.112559 -1.166865,0.112558 -0.10374,3.141556 -0.10374,3.14157 h 1.270604 1.270601 z M 25.515099,6.1629604 26.209567,5.7912924 v -1.627997 -1.627997 l -0.807832,0.114735 -0.807827,0.114734 -0.108527,1.884935 c -0.115401,2.004536 -0.05476,2.093661 1.029713,1.513268 z"
       id="path471" /></g></svg>
